<svg xmlns="http://www.w3.org/2000/svg" viewBox="0 0 210.07 206.17"><defs><style>.cls-1{fill:none;stroke:#1a1a1a;stroke-linecap:round;stroke-linejoin:round;stroke-width:15px;}.cls-2{fill:#fff;fill-rule:evenodd;}.cls-3{fill:#1a1a1a;}</style></defs><g id="Calque_2" data-name="Calque 2"><g id="Calque_1-2" data-name="Calque 1"><line class="cls-1" x1="63.5" y1="183.08" x2="146.21" y2="114.54"/><path class="cls-2" d="M127.11,198.67a7.63,7.63,0,0,1-5.69-2.49L9.64,77.15A7.87,7.87,0,0,1,13,64.25L192.31,7.89a8.09,8.09,0,0,1,2.45-.39A7.84,7.84,0,0,1,201.19,11a7.6,7.6,0,0,1,.82,7.24L134.5,193.62A7.87,7.87,0,0,1,127.11,198.67Z"/><path class="cls-3" d="M194.75,15a.73.73,0,0,1,.32.33.58.58,0,0,1-.06.2L127.5,190.93c0,.1-.09.24-.39.24-.09,0-.11,0-.22-.12L15.11,72a.28.28,0,0,1-.09-.34c.05-.2.11-.22.25-.27L194.56,15l.19,0m0-15a15.64,15.64,0,0,0-4.7.73L10.77,57.1a15.37,15.37,0,0,0-6.6,25.18L116,201.31a15.16,15.16,0,0,0,11.16,4.86,15.32,15.32,0,0,0,14.39-9.86L209,20.92A15.39,15.39,0,0,0,194.76,0Z"/><line class="cls-1" x1="68.63" y1="128.94" x2="193.61" y2="15.18"/><line class="cls-1" x1="63.5" y1="136.37" x2="63.5" y2="183.08"/></g></g></svg>